PathFileType	4	(X/Y/Z)	OpenSim_Sub06_EMGBaseline_Accel.trc
DataRate	CameraRate	NumFrames	NumMarkers	Units	OrigDataRate	OrigDataStartFrame	OrigNumFrames
100	100	31	8	m	100	5169	8270
Frame#	Time	torso_imu_offset_imu	pelvis_imu_offset_imu	tibia_r_imu_offset_imu	femur_r_imu_offset_imu	tibia_l_imu_offset_imu	femur_l_imu_offset_imu	toes_r_imu_offset_imu	toes_l_imu_offset_imu
				X1	Y1	Z1	X2	Y2	Z2	X3	Y3	Z3	X4	Y4	Z4	X5	Y5	Z5	X6	Y6	Z6	X7	Y7	Z7	X8		Y8	Z8	

5169	51.68000000	8.84759691	1.11152778	6.34688780	8.65179053	-0.00270688	4.82812638	3.26176991	3.19407484	3.84466171	9.66064308	-2.45018878	2.15059436	10.47893328	-6.64341788	-0.44283027	9.46905737	-0.18270260	-3.47671014	3.30559889	-2.39116003	9.69087507	4.60978657	0.56372808	11.30781043
5170	51.69000000	8.70915101	1.17413127	6.30043121	8.65060643	0.04781912	4.65899421	3.21588507	3.51496859	3.76919222	9.33024043	-2.52994485	2.22617304	10.02201339	-6.08316213	-0.26501071	9.60854491	0.22753624	-3.60636111	2.82635320	-1.62990856	9.54317812	5.01693759	0.56705531	11.28176411
5171	51.70000000	8.59301129	1.18025508	6.22755003	8.47926122	0.02703705	4.44855638	3.66667439	4.17701460	3.73406629	8.93695596	-2.62213755	2.25623981	9.59625818	-4.84321466	0.03537879	9.35921710	0.80566603	-3.65274670	2.66343989	-0.28215570	9.83104409	4.42126609	0.72548019	11.49190897
5172	51.71000000	8.54271309	1.17201559	6.10466965	8.37726359	-0.06662681	4.32208700	4.31473805	4.31492879	3.95114503	8.49835972	-2.73146830	2.32403473	9.42839506	-3.78887111	0.42259593	8.81076094	1.39249268	-3.55016649	2.51828374	0.70329771	10.01087158	4.49247247	1.06866349	11.43288092
5173	51.72000000	8.45669628	1.15871390	5.98425568	8.37756088	-0.23354970	4.20864692	5.52868767	4.20122493	4.06504962	8.21084680	-2.86011638	2.30999580	9.60010159	-2.56195504	0.66194207	8.49032733	1.67387298	-3.42868516	2.87997394	1.07795211	10.32049282	4.77405305	0.80734896	11.19402672
5174	51.73000000	8.37512541	1.20667164	5.92238988	8.39289742	-0.52508544	4.12805186	6.41255060	4.26188229	3.45996936	8.05201403	-2.95240016	2.28812471	9.87042400	-1.25902028	0.75769073	8.46392511	1.64034323	-3.46523026	3.51225459	0.96989994	10.74398383	4.74277403	1.22808482	11.34699367
5175	51.74000000	8.32545205	1.21439980	5.89876658	8.46793596	-0.74551569	4.11534963	6.62052193	4.72223713	2.36936989	7.89750774	-3.02557103	2.28987749	10.04259306	0.00407798	1.02874294	8.50732172	1.71041641	-3.50354432	3.92225163	0.66380430	11.00254292	4.98087377	0.85908932	11.06489028
5176	51.75000000	8.38569066	1.12718774	5.89056628	8.46096984	-1.04295772	4.06491599	6.20967810	5.57764270	1.36734198	7.82850806	-2.91301817	2.23905726	9.87195566	0.84630452	1.34304307	8.63437952	1.69812350	-3.32987823	4.49239965	0.18338186	11.17394535	4.27815865	1.28229654	11.39409971
5177	51.76000000	8.44750676	1.08559501	5.89485577	8.44397921	-1.26959237	4.10567178	5.87427970	6.48099219	1.08081068	7.70363775	-2.47648831	2.26780376	9.49663027	1.13294622	1.52700929	8.78127947	1.80390496	-3.05645265	4.79975636	-0.41115610	10.87292538	4.61551832	1.24251355	11.26272434
5178	51.77000000	8.58800665	1.04608582	5.97104424	8.50979689	-1.60491372	4.07342526	6.25464607	6.88305775	1.38294281	7.39956529	-2.49204538	2.31313477	9.27951554	0.81499428	1.61200889	8.81751673	2.30109940	-2.85822231	4.96989784	-0.80011321	10.56164511	4.82951829	0.84207404	11.14469903
5179	51.78000000	8.73624390	0.94976853	6.07042062	8.56526733	-1.75738262	4.07141263	7.14128460	6.67483917	2.22854043	7.42096539	-2.27694994	2.34267022	9.23276578	0.20678473	1.38294687	8.81853835	2.63637945	-2.69170378	6.78508858	-1.42891398	10.96106538	4.70511023	0.97230216	11.24150219
5180	51.79000000	8.79267138	0.89634421	6.12428675	8.59197961	-1.69228754	3.98716746	7.49895352	6.44979475	3.54445075	7.42758277	-2.33569134	2.36757161	9.45710455	-0.49669655	1.20976933	8.82052777	2.81794969	-2.48167594	10.73762242	-3.00301250	11.21629041	4.59726217	0.78285110	11.32816773
5181	51.80000000	8.75127560	0.85316330	6.10798241	8.48405584	-1.64601107	3.85321692	7.28417660	6.29476576	4.93868656	7.59204991	-2.50814829	2.59536919	9.84305264	-1.10929806	1.10456543	8.76458484	2.94885583	-2.50789957	13.45019229	-5.25791055	10.03331981	4.33096848	1.11347884	11.52681698
5182	51.81000000	8.69803864	0.83746826	6.00539294	8.21180666	-1.49567398	3.71312329	7.36474371	6.54629603	5.29761785	7.79779329	-2.67340392	2.88590758	10.00514927	-1.64026244	0.99635323	8.93076129	2.66630187	-2.54052446	13.27798684	-6.90788007	7.70785341	4.68511507	0.81890317	11.38292298
5183	51.82000000	8.63539986	0.81676267	5.93119806	8.12345036	-1.55344334	3.49716599	7.59982733	6.74121962	4.81365583	8.11121244	-3.15108546	3.15047084	9.97450204	-1.81524980	0.89990098	8.98440459	2.07332702	-2.61067133	12.93517223	-7.41134549	5.83868712	4.77530336	0.60844863	11.33975009
5184	51.83000000	8.70842025	0.78695783	5.84168206	7.93509436	-1.56307390	3.26416653	7.72780072	5.69973254	4.45922402	8.21355127	-3.32076395	3.35157918	9.85117721	-1.60967499	0.77838116	8.87187835	1.71303106	-2.68005480	14.15306242	-6.73840470	5.02487771	5.09748077	0.64202034	11.32042942
5185	51.84000000	8.74912768	0.74843531	5.82032212	7.75057210	-1.64996116	3.18195026	8.59576623	1.84763417	3.35899830	7.73224564	-3.31867394	3.30917713	9.76260176	-1.26571634	0.87637686	8.76101704	1.67233281	-2.65782464	16.13898756	-3.70695959	5.42428623	4.34598081	0.73273017	11.40802227
5186	51.85000000	8.79651689	0.71691644	5.78365943	7.75927179	-1.95364152	3.31249329	11.33992005	-2.11609604	0.67738254	7.09060481	-3.26565431	2.99730084	9.85156765	-0.81136266	0.76468694	8.86234616	1.81342927	-2.73544146	17.36679635	3.85439808	7.73683794	4.41704168	1.15115997	11.60538408
5187	51.86000000	8.74206144	0.59706449	5.71162667	7.68636101	-2.14237777	3.25834241	13.75022547	-2.02465384	-1.22214331	6.69098760	-3.02917848	3.18927958	10.17638372	-0.16261652	0.67902479	9.10753444	2.18885942	-2.94108912	20.06988220	4.79887890	6.45027448	4.80238651	0.86174553	11.36230796
5188	51.87000000	8.77041563	0.61968378	5.63076222	7.76740978	-2.37461220	3.25197879	13.64509519	-0.48911372	0.67582737	6.64032169	-2.91993893	3.54514979	10.41483437	0.63579134	0.73640989	9.00353463	2.61720549	-3.22415107	20.89963277	4.44607018	3.50963761	4.57558537	0.92134215	11.31573608
5189	51.88000000	8.98949870	0.57554667	5.59688502	7.97122467	-2.36537085	3.25722873	12.35662762	1.33034624	2.62219449	6.77554762	-3.53832182	3.45013952	10.46611908	1.08218165	1.02485025	8.56402197	2.87918423	-3.35667743	22.51469795	5.85817434	1.48306050	4.71608473	0.99329615	11.38256527
5190	51.89000000	9.09523373	0.61099892	5.71621088	8.02202855	-2.18408703	3.32174495	9.88117734	2.15474106	2.12617421	7.12248313	-5.26742656	2.93604532	10.28022948	1.06814623	1.31039183	8.17604094	2.91518312	-3.28219575	22.49996589	7.18339579	-1.13277527	4.10137097	1.18965556	11.63417555
5191	51.90000000	9.14866506	0.67673703	5.77672011	8.21593341	-1.89255237	3.35580678	6.20243820	3.08156421	2.29544138	7.41750556	-7.54846015	2.17494468	10.08441843	0.68363373	1.43676056	8.17195253	2.70285661	-2.97923419	19.67380076	9.16184362	-3.41233957	4.29924988	1.50546796	11.75208791
5192	51.91000000	9.06647670	0.74530267	5.83697315	8.41898678	-1.63962366	3.30625555	3.44850088	3.35012119	1.21535086	7.41448931	-8.94243230	1.26400819	9.94890145	0.30268807	1.59888103	8.43473133	2.39017995	-2.76863721	16.72556314	12.66112677	-4.22491383	4.48194880	0.97398277	11.69439289
5193	51.92000000	9.08860289	0.84501454	5.93751529	8.48583405	-1.51105069	3.27032282	4.32656753	2.70286765	1.18097136	7.33937696	-8.47990582	1.16328189	9.89190008	-0.15779983	1.56621657	8.72659017	2.04826405	-2.86666720	14.69129998	14.73982869	-4.84427964	4.45341117	0.82115914	11.64414159
5194	51.93000000	9.00768115	0.91821513	6.02459970	8.44437053	-1.54887158	3.07411642	6.53964237	1.84554543	2.32996968	7.10437436	-7.13000147	1.96039745	9.99707575	-0.52462537	1.60180241	8.90093859	1.91033810	-3.08773940	13.48111144	13.53223071	-5.35626697	4.40955305	0.61297575	12.01841607
5195	51.94000000	8.98658369	1.03253312	6.00626296	8.47291095	-1.65263605	2.71471664	7.75800393	1.54015410	1.93061089	6.86007872	-6.42490731	2.55374792	10.14099237	-0.74991918	1.87695438	8.91742789	1.80035152	-3.30149817	13.37221378	11.18851589	-4.46291554	4.09433413	0.29404188	11.93796030
5196	51.95000000	8.81808099	1.19399907	6.04040691	8.49439204	-1.84433926	2.35391222	8.12448294	2.30469342	1.28416095	6.57242201	-6.08930566	2.63335686	10.09586017	-0.89773484	2.20019177	9.03727589	1.74777095	-3.29730364	11.63305987	0.46346508	-3.78707891	4.69689497	0.88540990	11.86526389
5197	51.96000000	8.77226151	1.29960944	6.03958280	8.64110191	-2.09042652	2.19119285	7.74761135	2.59202057	1.60895849	6.41362826	-5.28142013	2.44036142	10.00784701	-0.74438142	2.38492355	9.11084030	1.64955116	-3.29559607	3.24813052	-20.59728783	-3.96082479	5.01782461	0.40120625	11.63466646
5198	51.97000000	8.89488593	1.36789634	6.11939588	8.74294755	-2.01512434	2.69360302	7.92601077	2.25347366	2.88858227	6.40379600	-4.39690804	2.18616041	10.00196658	-0.50801176	2.50647665	9.15708993	1.68435658	-3.21305033	10.05481823	14.53144762	25.17288584	4.85665051	0.42400477	11.90501120
5199	51.98000000	9.38370237	1.41789085	6.25229305	8.79996529	-1.54657289	4.31765930	9.07975409	2.40941584	6.86636251	7.44457093	-3.31367770	2.92747005	10.21419316	-0.09652905	2.53185880	9.46475857	2.08149008	-3.12922221	10.92838540	-11.93118111	20.05007096	4.52394184	1.14739811	12.49337120
